<svg width="12" height="20" viewBox="0 0 12 20" fill="none" xmlns="http://www.w3.org/2000/svg">
<path d="M0.503906 9.01953C0.246094 9.23438 0.160156 9.49219 0.160156 9.75C0.160156 10.0508 0.246094 10.3086 0.503906 10.4805L8.83984 18.8164C9.01172 19.0312 9.26953 19.1172 9.57031 19.1172C9.82812 19.1172 10.0859 19.0312 10.3008 18.8164L11.2461 17.8711C11.418 17.6992 11.5469 17.4414 11.5469 17.1406C11.5469 16.8828 11.4609 16.625 11.2891 16.4102L4.62891 9.75L11.2891 3.08984C11.4609 2.91797 11.5469 2.66016 11.5469 2.35938C11.5469 2.10156 11.418 1.84375 11.2461 1.62891L10.3008 0.683594C10.0859 0.511719 9.82812 0.382812 9.57031 0.382812C9.26953 0.382812 9.01172 0.511719 8.83984 0.683594L0.503906 9.01953Z" fill="white"/>
</svg>
